<?xml version="1.0" encoding="utf-8"?>
<!-- Generator: Adobe Illustrator 16.0.4, SVG Export Plug-In . SVG Version: 6.00 Build 0)  -->
<!DOCTYPE svg PUBLIC "-//W3C//DTD SVG 1.1//EN" "http://www.w3.org/Graphics/SVG/1.1/DTD/svg11.dtd">
<svg version="1.1" id="Ebene_1" xmlns="http://www.w3.org/2000/svg" xmlns:xlink="http://www.w3.org/1999/xlink" x="0px" y="0px"
	 width="653.412px" height="76.055px" viewBox="0 0 653.412 76.055" enable-background="new 0 0 653.412 76.055"
	 xml:space="preserve">
<g>
	<path fill="#FFFFFF" d="M17.793,55.192c-3.48-3.705-6.962-7.412-10.443-11.117c-0.385-0.709-0.725-1.445-1.161-2.121
		c-5.212-8.061-9.315-17.152-2.942-25.465c3.538-4.615,12.396-9.861,16.512-8.367c9.107,3.307,17.158,10.19,24.764,16.648
		c3.279,2.785,6.209,8.15,6.16,12.307C50.481,54.063,33.751,62.938,17.793,55.192z M8.381,9.441
		c-0.193,1.042-0.386,2.083-0.579,3.125c-0.6,0.812-1.198,1.626-1.798,2.438c1.039,0.051,2.095,0.001,3.114,0.175
		c2.222,0.38,4.966,0.189,6.542,1.438c7.087,5.616,13.958,11.524,20.657,17.603c2.811,2.549,5.217,5.635,7.337,8.793
		c0.597,0.889-0.468,2.895-0.771,4.389c1.626-1.146,4.274-2.02,4.669-3.494c0.876-3.27,2.167-8.12,0.557-10.065
		c-6.453-7.797-13.184-15.822-21.358-21.559C22.203,9.092,14.605,10.247,8.381,9.441z M11.54,25.348
		c0.167-0.232,0.336-0.463,0.504-0.695c-2.863-1.584-5.726-3.167-8.588-4.752c-0.324,0.999-1.162,2.213-0.854,2.945
		c0.486,1.157,2.048,1.843,2.611,2.994c1.445,2.956,2.604,6.054,3.836,9.111c0.109,0.27,0.024,0.876-0.146,0.957
		c-1.16,0.551-2.366,1.004-3.558,1.489c1.387-0.16,2.819-0.594,4.145-0.377c0.808,0.131,1.482,1.238,2.167,1.953
		c2.464,2.574,4.647,5.504,7.428,7.668c3.037,2.361,6.424,4.953,10.024,5.711c3.157,0.664,6.819-1.07,10.258-1.744
		c-1.596-1.943-2.959-4.152-4.83-5.781C26.956,38.237,19.219,31.825,11.54,25.348z M40.92,47.481
		c-0.25,0.551-0.498,1.102-0.747,1.654c1.198,0.273,2.389,0.662,3.601,0.754c0.407,0.031,0.872-0.691,1.31-1.07
		c-0.871-0.053-1.839,0.109-2.579-0.229c-0.573-0.264-0.87-1.146-1.268-1.766c-1.627-2.527-3.162-5.121-4.918-7.553
		c-0.548-0.758-1.688-1.09-2.558-1.617c0.179-0.258,0.304-0.6,0.548-0.76c0.657-0.432,1.363-0.787,2.05-1.171
		c-1.02-0.059-2.088,0.056-3.049-0.213c-1.764-0.492-3.466-1.209-5.194-1.833c0.1-0.162,0.292-0.329,0.284-0.484
		c-0.044-0.792,0.15-2.009-0.27-2.293c-1.672-1.134-3.528-2-5.344-2.91c-0.582-0.293-1.539-0.223-1.824-0.65
		c-1.189-1.789-1.875-4.033-3.366-5.462c-1.011-0.968-3.082-0.774-4.631-1.253c-1.142-0.354-2.245-0.891-3.271-1.503
		C9.509,19.01,9.61,18.029,9.87,17.647c0.381-0.561,1.025-0.942,1.557-1.4c-2.274,0.115-4.548,0.232-6.823,0.35
		c0.12,0.65,0.005,1.565,0.395,1.911c5.26,4.669,10.452,9.43,15.938,13.823C27.459,37.554,34.248,42.444,40.92,47.481z"/>
</g>
<g>
	<path fill="#FFFFFF" d="M63.782,51.562c-0.625-0.429-0.879-1.073-0.762-1.934c0.117-0.858,0.39-1.737,0.82-2.637
		c0.429-1.015,1.055-2.128,1.875-3.34c1.25-2.382,2.373-4.521,3.369-6.416c0.996-1.894,1.923-3.681,2.783-5.361
		c0.859-1.679,1.679-3.3,2.461-4.863c0.781-1.562,1.572-3.203,2.373-4.922c0.8-1.718,1.63-3.554,2.49-5.508
		c0.859-1.953,1.816-4.179,2.871-6.68c0.078-0.156,0.205-0.381,0.381-0.674s0.39-0.527,0.645-0.703
		c0.253-0.176,0.517-0.234,0.791-0.176c0.273,0.059,0.546,0.342,0.82,0.85c0.39,0.782,0.419,1.856,0.088,3.223
		c-0.333,1.368-0.908,2.94-1.729,4.717c-0.82,1.778-1.797,3.691-2.93,5.742c-1.133,2.051-2.325,4.131-3.574,6.24
		c-1.25,2.109-2.481,4.2-3.691,6.27c-1.211,2.071-2.276,4.005-3.193,5.801c-0.918,1.798-1.622,3.428-2.109,4.893
		c-0.489,1.465-0.655,2.628-0.498,3.486c2.773,0.274,5.566,0.255,8.379-0.059c2.812-0.312,5.625-0.692,8.438-1.143
		c2.812-0.448,5.634-0.85,8.467-1.201c2.832-0.352,5.654-0.429,8.467-0.234c0.507-0.077,0.938,0.099,1.289,0.527
		c0.352,0.431,0.371,0.899,0.059,1.406c-0.079,0-0.244-0.009-0.498-0.029c-0.255-0.019-0.519-0.029-0.791-0.029
		c-0.273,0-0.537,0.011-0.791,0.029c-0.255,0.021-0.439,0.029-0.557,0.029c-2.188,0.196-4.746,0.538-7.676,1.025
		c-2.93,0.489-5.958,0.948-9.082,1.377c-3.125,0.431-6.24,0.762-9.346,0.996s-5.909,0.214-8.408-0.059
		c-0.04,0-0.225-0.088-0.557-0.264C64.124,51.768,63.899,51.642,63.782,51.562z"/>
	<path fill="#FFFFFF" d="M103.802,51.562c1.602-5.156,3.056-9.247,4.365-12.275c1.309-3.027,2.402-5.146,3.281-6.357
		c0.879-1.21,1.474-1.601,1.787-1.172c0.312,0.43,0.283,1.523-0.088,3.281c-0.372,1.758-1.152,4.112-2.344,7.061
		c-1.192,2.95-2.862,6.319-5.01,10.107c-0.313,0.117-0.684,0.136-1.113,0.059C104.25,52.188,103.957,51.954,103.802,51.562z
		 M114.056,23.379c-0.079-0.195-0.117-0.546-0.117-1.055c0-0.507,0.038-0.82,0.117-0.938c0.898-0.312,1.582-0.352,2.051-0.117
		s0.762,0.577,0.879,1.025c0.117,0.45,0.107,0.928-0.029,1.436c-0.138,0.508-0.361,0.889-0.674,1.143
		c-0.313,0.254-0.674,0.293-1.084,0.117S114.407,24.278,114.056,23.379z"/>
	<path fill="#FFFFFF" d="M123.372,51.562c-0.039-0.077-0.059-0.293-0.059-0.645s0.02-0.586,0.059-0.703
		c0.117-0.429,0.331-1.181,0.645-2.256c0.312-1.073,0.645-2.206,0.996-3.398c0.352-1.19,0.683-2.314,0.996-3.369
		c0.312-1.055,0.527-1.796,0.645-2.227c0.155-0.546,0.331-1.181,0.527-1.904c0.195-0.722,0.234-1.416,0.117-2.08
		c-0.586-0.078-1.31-0.009-2.168,0.205c-0.859,0.215-1.709,0.391-2.549,0.527c-0.841,0.137-1.621,0.137-2.344,0
		c-0.724-0.136-1.24-0.595-1.553-1.377c0.469-0.976,1.172-1.611,2.109-1.904s1.953-0.498,3.047-0.615
		c1.093-0.117,2.139-0.293,3.135-0.527s1.787-0.762,2.373-1.582c0.352-1.015,0.771-2.256,1.26-3.721
		c0.488-1.465,1.005-2.998,1.553-4.6c0.547-1.601,1.143-3.183,1.787-4.746c0.645-1.562,1.318-2.949,2.021-4.16
		c0.43-0.273,0.781-0.293,1.055-0.059c0.272,0.234,0.478,0.577,0.615,1.025c0.137,0.45,0.225,0.908,0.264,1.377
		c0.038,0.469,0.038,0.782,0,0.938c-0.234,1.016-0.636,2.1-1.201,3.252c-0.566,1.153-1.094,2.314-1.582,3.486
		c-0.489,1.172-0.879,2.344-1.172,3.516s-0.303,2.285-0.029,3.34h12.598c0.038,0,0.137,0.127,0.293,0.381
		c0.155,0.254,0.293,0.459,0.41,0.615c0.195,0.547-0.021,0.918-0.645,1.113c-0.625,0.196-1.465,0.322-2.52,0.381
		s-2.256,0.098-3.604,0.117c-1.348,0.02-2.637,0.117-3.867,0.293s-2.335,0.469-3.311,0.879c-0.977,0.41-1.641,1.025-1.992,1.846
		c-1.017,2.618-1.954,5.244-2.812,7.881c-0.859,2.637-1.68,5.303-2.461,7.998c-0.079,0.117-0.234,0.304-0.469,0.557
		c-0.234,0.255-0.489,0.469-0.762,0.645c-0.273,0.176-0.537,0.243-0.791,0.205C123.732,52.226,123.527,51.993,123.372,51.562z"/>
	<path fill="#FFFFFF" d="M148.567,51.562c-0.039-0.077-0.059-0.293-0.059-0.645s0.02-0.586,0.059-0.703
		c0.117-0.429,0.331-1.181,0.645-2.256c0.312-1.073,0.645-2.206,0.996-3.398c0.352-1.19,0.683-2.314,0.996-3.369
		c0.312-1.055,0.527-1.796,0.645-2.227c0.155-0.546,0.331-1.181,0.527-1.904c0.195-0.722,0.234-1.416,0.117-2.08
		c-0.586-0.078-1.31-0.009-2.168,0.205c-0.859,0.215-1.709,0.391-2.549,0.527c-0.841,0.137-1.621,0.137-2.344,0
		c-0.724-0.136-1.24-0.595-1.553-1.377c0.469-0.976,1.172-1.611,2.109-1.904s1.953-0.498,3.047-0.615
		c1.093-0.117,2.139-0.293,3.135-0.527s1.787-0.762,2.373-1.582c0.352-1.015,0.771-2.256,1.26-3.721
		c0.488-1.465,1.005-2.998,1.553-4.6c0.547-1.601,1.143-3.183,1.787-4.746c0.645-1.562,1.318-2.949,2.021-4.16
		c0.43-0.273,0.781-0.293,1.055-0.059c0.272,0.234,0.478,0.577,0.615,1.025c0.137,0.45,0.225,0.908,0.264,1.377
		c0.038,0.469,0.038,0.782,0,0.938c-0.234,1.016-0.636,2.1-1.201,3.252c-0.566,1.153-1.094,2.314-1.582,3.486
		c-0.489,1.172-0.879,2.344-1.172,3.516s-0.303,2.285-0.029,3.34h12.598c0.038,0,0.137,0.127,0.293,0.381
		c0.155,0.254,0.293,0.459,0.41,0.615c0.195,0.547-0.021,0.918-0.645,1.113c-0.625,0.196-1.465,0.322-2.52,0.381
		s-2.256,0.098-3.604,0.117c-1.348,0.02-2.637,0.117-3.867,0.293s-2.335,0.469-3.311,0.879c-0.977,0.41-1.641,1.025-1.992,1.846
		c-1.017,2.618-1.954,5.244-2.812,7.881c-0.859,2.637-1.68,5.303-2.461,7.998c-0.079,0.117-0.234,0.304-0.469,0.557
		c-0.234,0.255-0.489,0.469-0.762,0.645c-0.273,0.176-0.537,0.243-0.791,0.205C148.928,52.226,148.723,51.993,148.567,51.562z"/>
	<path fill="#FFFFFF" d="M171.771,51.562c-1.134-0.82-1.866-1.854-2.197-3.105c-0.332-1.249-0.381-2.607-0.146-4.072
		s0.653-2.978,1.26-4.541c0.605-1.562,1.269-3.065,1.992-4.512c0.723-1.445,1.426-2.773,2.109-3.984
		c0.683-1.21,1.221-2.207,1.611-2.988c0.117-0.234,0.4-0.8,0.85-1.699c0.448-0.898,0.928-1.875,1.436-2.93
		c0.507-1.055,0.986-2.041,1.436-2.959c0.448-0.917,0.732-1.494,0.85-1.729c0.117-0.195,0.283-0.576,0.498-1.143
		c0.214-0.566,0.459-1.181,0.732-1.846c0.272-0.664,0.576-1.298,0.908-1.904c0.331-0.605,0.683-1.044,1.055-1.318
		c0.371-0.273,0.741-0.312,1.113-0.117c0.371,0.196,0.732,0.782,1.084,1.758c-0.156,0.391-0.537,1.172-1.143,2.344
		c-0.606,1.172-1.318,2.578-2.139,4.219s-1.729,3.457-2.725,5.449s-1.963,4.004-2.9,6.035c-0.938,2.032-1.816,4.014-2.637,5.947
		s-1.494,3.691-2.021,5.273s-0.841,2.892-0.938,3.926c-0.098,1.036,0.088,1.67,0.557,1.904c0.547,0.274,1.26,0.381,2.139,0.322
		s1.787-0.165,2.725-0.322c0.938-0.155,1.854-0.322,2.754-0.498c0.898-0.176,1.679-0.243,2.344-0.205
		c0.155,0.352,0.038,0.694-0.352,1.025c-0.391,0.333-0.938,0.626-1.641,0.879c-0.703,0.255-1.515,0.469-2.432,0.645
		c-0.918,0.176-1.797,0.304-2.637,0.381c-0.841,0.079-1.582,0.099-2.227,0.059C172.444,51.817,172.005,51.72,171.771,51.562z"/>
	<path fill="#FFFFFF" d="M192.63,51.562c-1.172-0.39-2.061-0.985-2.666-1.787c-0.606-0.8-1.006-1.688-1.201-2.666
		c-0.196-0.976-0.226-2.001-0.088-3.076c0.137-1.073,0.36-2.099,0.674-3.076c1.172-1.249,2.49-2.685,3.955-4.307
		c1.465-1.621,3.018-3.212,4.658-4.775c1.641-1.562,3.349-3.018,5.127-4.365c1.777-1.348,3.583-2.373,5.42-3.076
		c0.624-0.273,1.122-0.264,1.494,0.029c0.371,0.293,0.635,0.752,0.791,1.377c0.155,0.625,0.225,1.348,0.205,2.168
		c-0.021,0.82-0.088,1.622-0.205,2.402c-0.117,0.782-0.273,1.485-0.469,2.109c-0.196,0.625-0.391,1.055-0.586,1.289
		c-0.469,0.547-1.377,1.192-2.725,1.934c-1.348,0.743-2.842,1.553-4.482,2.432s-3.281,1.787-4.922,2.725s-2.988,1.866-4.043,2.783
		c-1.055,0.919-1.68,1.827-1.875,2.725c-0.196,0.899,0.352,1.72,1.641,2.461c1.327,0.157,2.938,0.088,4.834-0.205
		c1.895-0.293,3.828-0.683,5.801-1.172c1.972-0.487,3.876-0.996,5.713-1.523c1.836-0.527,3.34-0.946,4.512-1.26l0.703,0.645
		c-0.859,1.134-2.266,2.168-4.219,3.105c-1.954,0.938-4.063,1.71-6.328,2.314c-2.266,0.606-4.474,0.996-6.621,1.172
		C195.579,52.119,193.88,51.993,192.63,51.562z M206.634,29.18c-0.039-0.039-0.332,0.127-0.879,0.498
		c-0.548,0.372-1.222,0.86-2.021,1.465c-0.801,0.606-1.661,1.27-2.578,1.992c-0.918,0.723-1.758,1.397-2.52,2.021
		c-0.762,0.625-1.397,1.163-1.904,1.611c-0.508,0.45-0.724,0.674-0.645,0.674c0.624,0.117,1.436,0.029,2.432-0.264
		s2.03-0.712,3.105-1.26c1.074-0.546,2.1-1.162,3.076-1.846c0.976-0.683,1.748-1.357,2.314-2.021
		c0.565-0.664,0.858-1.25,0.879-1.758C207.913,29.786,207.492,29.414,206.634,29.18z"/>
	<path fill="#FFFFFF" d="M248.997,52.031c-1.172-0.663-1.992-1.308-2.461-1.934c-0.469-0.624-0.703-1.289-0.703-1.992
		s0.176-1.483,0.527-2.344c0.352-0.858,0.762-1.854,1.23-2.988c0.117-0.234,0.352-0.712,0.703-1.436
		c0.352-0.722,0.752-1.571,1.201-2.549c0.448-0.976,0.938-2.001,1.465-3.076c0.527-1.074,1.016-2.099,1.465-3.076
		c0.448-0.976,0.84-1.826,1.172-2.549c0.331-0.722,0.557-1.201,0.674-1.436c0.507-1.093,0.732-2.06,0.674-2.9
		c-0.059-0.839-0.156-1.63-0.293-2.373c-0.138-0.742-0.196-1.465-0.176-2.168c0.02-0.703,0.381-1.503,1.084-2.402
		c0.117-0.117,0.371-0.39,0.762-0.82c0.39-0.429,0.811-0.888,1.26-1.377c0.448-0.488,0.869-0.938,1.26-1.348
		c0.39-0.41,0.624-0.674,0.703-0.791c0.195-0.234,0.752-0.625,1.67-1.172c0.917-0.546,2.041-1.143,3.369-1.787
		c1.327-0.645,2.803-1.308,4.424-1.992c1.62-0.683,3.231-1.289,4.834-1.816c1.602-0.527,3.144-0.927,4.629-1.201
		c1.484-0.273,2.754-0.352,3.809-0.234s1.825,0.489,2.314,1.113c0.488,0.625,0.557,1.582,0.205,2.871
		c-0.586,2.109-1.533,3.965-2.842,5.566c-1.31,1.602-2.687,3.028-4.131,4.277c-1.445,1.25-2.822,2.364-4.131,3.34
		c-1.31,0.977-2.276,1.895-2.9,2.754c4.688,0.157,8.115,0.723,10.283,1.699c2.168,0.977,3.398,2.208,3.691,3.691
		c0.293,1.485-0.186,3.135-1.436,4.951c-1.251,1.816-2.969,3.614-5.156,5.391c-2.188,1.778-4.668,3.457-7.441,5.039
		c-2.774,1.582-5.537,2.882-8.291,3.896c-2.754,1.017-5.332,1.659-7.734,1.934C252.308,53.065,250.403,52.812,248.997,52.031z
		 M253.626,37.852c-0.742,0.899-1.427,1.886-2.051,2.959c-0.625,1.075-1.104,2.13-1.436,3.164c-0.332,1.036-0.479,2.013-0.439,2.93
		c0.038,0.919,0.331,1.661,0.879,2.227c0.547,0.567,1.377,0.908,2.49,1.025s2.607-0.097,4.482-0.645
		c4.14-0.938,7.743-2.128,10.811-3.574c3.066-1.444,5.604-2.959,7.617-4.541c2.012-1.582,3.495-3.153,4.453-4.717
		c0.957-1.562,1.406-2.939,1.348-4.131c-0.059-1.191-0.625-2.099-1.699-2.725c-1.075-0.625-2.628-0.81-4.658-0.557
		c-2.031,0.254-4.541,1.055-7.529,2.402s-6.437,3.409-10.342,6.182c-0.431,0.352-0.82,0.519-1.172,0.498
		c-0.352-0.019-0.684-0.097-0.996-0.234c-0.313-0.136-0.606-0.264-0.879-0.381C254.231,37.617,253.938,37.657,253.626,37.852z
		 M254.915,32.93c0,0.117-0.01,0.293-0.029,0.527c-0.021,0.234-0.029,0.479-0.029,0.732c0,0.254,0.009,0.498,0.029,0.732
		c0.02,0.234,0.029,0.41,0.029,0.527c0.312-0.078,0.957-0.449,1.934-1.113c0.976-0.664,2.158-1.523,3.545-2.578
		c1.386-1.055,2.9-2.256,4.541-3.604s3.29-2.754,4.951-4.219c1.66-1.465,3.242-2.93,4.746-4.395
		c1.503-1.465,2.803-2.842,3.896-4.131c1.093-1.289,1.924-2.432,2.49-3.428c0.565-0.996,0.732-1.767,0.498-2.314
		c-1.72-0.234-3.525-0.126-5.42,0.322c-1.896,0.45-3.75,1.104-5.566,1.963c-1.816,0.86-3.507,1.846-5.068,2.959
		c-1.562,1.113-2.871,2.197-3.926,3.252c-0.234,0.508-0.625,1.406-1.172,2.695c-0.548,1.289-1.143,2.657-1.787,4.102
		c-0.645,1.446-1.251,2.803-1.816,4.072c-0.566,1.27-0.967,2.159-1.201,2.666c0,0.079-0.098,0.284-0.293,0.615
		C255.07,32.647,254.953,32.852,254.915,32.93z"/>
	<path fill="#FFFFFF" d="M291.712,51.562c-1.172-0.39-2.061-0.985-2.666-1.787c-0.606-0.8-1.006-1.688-1.201-2.666
		c-0.196-0.976-0.226-2.001-0.088-3.076c0.137-1.073,0.36-2.099,0.674-3.076c1.172-1.249,2.49-2.685,3.955-4.307
		c1.465-1.621,3.018-3.212,4.658-4.775c1.641-1.562,3.349-3.018,5.127-4.365c1.777-1.348,3.583-2.373,5.42-3.076
		c0.624-0.273,1.122-0.264,1.494,0.029c0.371,0.293,0.635,0.752,0.791,1.377c0.155,0.625,0.225,1.348,0.205,2.168
		c-0.021,0.82-0.088,1.622-0.205,2.402c-0.117,0.782-0.273,1.485-0.469,2.109c-0.196,0.625-0.391,1.055-0.586,1.289
		c-0.469,0.547-1.377,1.192-2.725,1.934c-1.348,0.743-2.842,1.553-4.482,2.432s-3.281,1.787-4.922,2.725s-2.988,1.866-4.043,2.783
		c-1.055,0.919-1.68,1.827-1.875,2.725c-0.196,0.899,0.352,1.72,1.641,2.461c1.327,0.157,2.938,0.088,4.834-0.205
		c1.895-0.293,3.828-0.683,5.801-1.172c1.972-0.487,3.876-0.996,5.713-1.523c1.836-0.527,3.34-0.946,4.512-1.26l0.703,0.645
		c-0.859,1.134-2.266,2.168-4.219,3.105c-1.954,0.938-4.063,1.71-6.328,2.314c-2.266,0.606-4.474,0.996-6.621,1.172
		C294.661,52.119,292.962,51.993,291.712,51.562z M305.716,29.18c-0.039-0.039-0.332,0.127-0.879,0.498
		c-0.548,0.372-1.222,0.86-2.021,1.465c-0.801,0.606-1.661,1.27-2.578,1.992c-0.918,0.723-1.758,1.397-2.52,2.021
		c-0.762,0.625-1.397,1.163-1.904,1.611c-0.508,0.45-0.724,0.674-0.645,0.674c0.624,0.117,1.436,0.029,2.432-0.264
		s2.03-0.712,3.105-1.26c1.074-0.546,2.1-1.162,3.076-1.846c0.976-0.683,1.748-1.357,2.314-2.021
		c0.565-0.664,0.858-1.25,0.879-1.758C306.995,29.786,306.574,29.414,305.716,29.18z"/>
	<path fill="#FFFFFF" d="M315.56,50.859c-0.938-0.78-1.456-1.934-1.553-3.457c-0.098-1.523,0.117-3.241,0.645-5.156
		c0.527-1.913,1.309-3.915,2.344-6.006c1.034-2.089,2.235-4.082,3.604-5.977c1.367-1.894,2.851-3.593,4.453-5.098
		c1.602-1.503,3.202-2.617,4.805-3.34c1.602-0.722,3.164-0.976,4.688-0.762c1.523,0.215,2.909,1.104,4.16,2.666
		c0.781,0.977,1.25,1.963,1.406,2.959c0.155,0.996,0.137,2.012-0.059,3.047c-0.196,1.036-0.508,2.09-0.938,3.164
		c-0.431,1.075-0.85,2.159-1.26,3.252c-0.41,1.095-0.742,2.208-0.996,3.34c-0.255,1.134-0.303,2.285-0.146,3.457
		c0.195,1.485,0.858,2.364,1.992,2.637c1.133,0.274,2.49,0.196,4.072-0.234c1.582-0.429,3.252-1.113,5.01-2.051
		s3.389-1.875,4.893-2.812c1.503-0.938,3.252-2.109,5.244-3.516c1.093-0.234,1.708-0.165,1.846,0.205
		c0.137,0.372-0.079,0.919-0.645,1.641c-0.566,0.724-1.416,1.544-2.549,2.461c-1.134,0.919-2.423,1.808-3.867,2.666
		c-1.445,0.86-2.988,1.641-4.629,2.344s-3.243,1.183-4.805,1.436c-1.562,0.255-3.038,0.234-4.424-0.059
		c-1.387-0.293-2.529-0.985-3.428-2.08c-0.431-0.469-0.753-0.938-0.967-1.406c-0.215-0.469-0.557-0.879-1.025-1.23
		c-0.586,0.548-1.289,1.26-2.109,2.139s-1.709,1.758-2.666,2.637c-0.958,0.879-1.973,1.71-3.047,2.49
		c-1.075,0.782-2.178,1.368-3.311,1.758c-1.134,0.39-2.276,0.527-3.428,0.41C317.718,52.266,316.614,51.759,315.56,50.859z
		 M316.204,48.867c0.352,1.251,1.133,1.827,2.344,1.729c1.21-0.097,2.616-0.692,4.219-1.787c1.602-1.093,3.261-2.587,4.98-4.482
		c1.719-1.894,3.261-4.003,4.629-6.328c1.367-2.324,2.411-4.775,3.135-7.354c0.723-2.578,0.908-5.117,0.557-7.617
		c-0.938-0.742-2.109-0.771-3.516-0.088c-1.406,0.684-2.9,1.797-4.482,3.34c-1.582,1.543-3.145,3.379-4.688,5.508
		c-1.544,2.129-2.9,4.277-4.072,6.445s-2.061,4.21-2.666,6.123C316.037,46.271,315.891,47.774,316.204,48.867z"/>
	<path fill="#FFFFFF" d="M376.204,51.562c-0.117-1.289-0.01-2.567,0.322-3.838c0.331-1.269,0.781-2.52,1.348-3.75
		c0.565-1.23,1.172-2.461,1.816-3.691s1.201-2.44,1.67-3.633c0.469-1.191,0.8-2.363,0.996-3.516
		c0.195-1.152,0.117-2.294-0.234-3.428c-0.977-0.352-2.101-0.273-3.369,0.234c-1.27,0.508-2.607,1.28-4.014,2.314
		c-1.406,1.036-2.862,2.247-4.365,3.633c-1.504,1.388-2.969,2.794-4.395,4.219c-1.427,1.427-2.783,2.783-4.072,4.072
		s-2.452,2.354-3.486,3.193c-1.035,0.841-1.904,1.368-2.607,1.582c-0.703,0.216-1.172-0.029-1.406-0.732
		c-0.039-0.038,0.185-0.536,0.674-1.494c0.488-0.956,1.093-2.157,1.816-3.604c0.723-1.444,1.523-3.007,2.402-4.688
		c0.879-1.679,1.708-3.252,2.49-4.717c0.781-1.465,1.465-2.705,2.051-3.721c0.586-1.015,0.957-1.562,1.113-1.641
		c0.82,0.547,1.239,1.143,1.26,1.787c0.02,0.645-0.088,1.309-0.322,1.992c-0.234,0.684-0.498,1.377-0.791,2.08
		s-0.343,1.406-0.146,2.109c0.624-0.429,1.494-1.025,2.607-1.787s2.323-1.553,3.633-2.373c1.309-0.82,2.675-1.621,4.102-2.402
		c1.426-0.781,2.763-1.396,4.014-1.846c1.25-0.449,2.373-0.693,3.369-0.732c0.996-0.039,1.729,0.254,2.197,0.879
		c0.469,0.625,0.615,1.651,0.439,3.076c-0.176,1.426-0.791,3.369-1.846,5.83c-0.117,0.274-0.401,0.929-0.85,1.963
		c-0.449,1.036-0.938,2.149-1.465,3.34c-0.527,1.192-1.017,2.306-1.465,3.34c-0.449,1.036-0.732,1.69-0.85,1.963
		c-0.039,0.157-0.088,0.439-0.146,0.85s-0.127,0.86-0.205,1.348c-0.079,0.489-0.196,0.958-0.352,1.406
		c-0.156,0.45-0.352,0.791-0.586,1.025s-0.508,0.205-0.82-0.088C376.418,51.826,376.242,51.642,376.204,51.562z"/>
	<path fill="#FFFFFF" d="M419.681,51.562c-0.313-0.897-0.138-2.294,0.527-4.189c0.664-1.894,1.572-4.043,2.725-6.445
		c1.151-2.402,2.44-4.893,3.867-7.471c1.426-2.578,2.733-4.99,3.926-7.236c1.191-2.246,2.168-4.16,2.93-5.742
		s1.063-2.587,0.908-3.018c-0.469-0.156-0.967-0.097-1.494,0.176c-0.527,0.274-1.055,0.547-1.582,0.82
		c-0.527,0.274-1.046,0.43-1.553,0.469c-0.508,0.04-0.958-0.234-1.348-0.82c-0.196-0.273-0.264-0.537-0.205-0.791
		c0.059-0.253,0.176-0.498,0.352-0.732s0.371-0.439,0.586-0.615c0.214-0.176,0.4-0.322,0.557-0.439
		c4.453-2.93,8.681-5.215,12.686-6.855c4.004-1.641,7.597-2.754,10.781-3.34c3.184-0.586,5.859-0.703,8.027-0.352
		s3.662,1.065,4.482,2.139c0.82,1.075,0.869,2.461,0.146,4.16c-0.724,1.699-2.383,3.604-4.98,5.713
		c-2.599,2.109-6.25,4.365-10.957,6.768c-4.708,2.402-10.615,4.854-17.725,7.354c-0.391,0.625-0.284,1.329,0.322,2.109
		c0.605,0.782,1.503,1.631,2.695,2.549c1.191,0.919,2.598,1.866,4.219,2.842c1.62,0.978,3.261,1.963,4.922,2.959
		c1.66,0.996,3.242,1.974,4.746,2.93c1.503,0.958,2.744,1.866,3.721,2.725c0.976,0.86,1.611,1.661,1.904,2.402
		c0.293,0.743,0.029,1.388-0.791,1.934c-0.039,0.04-0.284-0.106-0.732-0.439c-0.449-0.331-1.006-0.762-1.67-1.289
		c-0.665-0.527-1.377-1.103-2.139-1.729c-0.762-0.624-1.485-1.21-2.168-1.758c-0.684-0.546-1.27-1.015-1.758-1.406
		c-0.489-0.39-0.771-0.624-0.85-0.703c-2.344-1.483-4.688-2.948-7.031-4.395c-2.344-1.444-4.629-3.065-6.855-4.863
		c-0.742-0.234-1.485,0.157-2.227,1.172c-0.742,1.017-1.465,2.314-2.168,3.896s-1.397,3.263-2.08,5.039
		c-0.684,1.778-1.318,3.321-1.904,4.629c-0.586,1.31-1.113,2.208-1.582,2.695S420.032,52.617,419.681,51.562z M433.626,27.129
		c0.858,0.274,2.021,0.254,3.486-0.059c1.465-0.312,3.085-0.839,4.863-1.582c1.777-0.742,3.633-1.641,5.566-2.695
		s3.779-2.158,5.537-3.311c1.758-1.152,3.369-2.314,4.834-3.486s2.607-2.256,3.428-3.252s1.26-1.846,1.318-2.549
		s-0.42-1.152-1.436-1.348c-4.219-0.078-7.813,0.127-10.781,0.615c-2.969,0.489-5.508,1.397-7.617,2.725
		c-2.109,1.329-3.888,3.145-5.332,5.449c-1.445,2.305-2.734,5.235-3.867,8.789V27.129z"/>
	<path fill="#FFFFFF" d="M463.509,51.562c-1.641-0.663-2.666-1.659-3.076-2.988c-0.41-1.327-0.401-2.802,0.029-4.424
		c0.43-1.62,1.172-3.3,2.227-5.039c1.055-1.737,2.227-3.33,3.516-4.775c1.289-1.445,2.587-2.666,3.896-3.662
		c1.309-0.996,2.432-1.553,3.369-1.67c2.422-0.312,4.326-0.146,5.713,0.498c1.386,0.645,2.334,1.573,2.842,2.783
		c0.507,1.211,0.645,2.627,0.41,4.248c-0.234,1.622-0.753,3.252-1.553,4.893c-0.801,1.641-1.837,3.223-3.105,4.746
		c-1.27,1.523-2.676,2.804-4.219,3.838c-1.544,1.036-3.174,1.72-4.893,2.051C466.945,52.392,465.228,52.226,463.509,51.562z
		 M462.864,48.223c0.312,1.251,0.976,1.944,1.992,2.08c1.016,0.138,2.197-0.117,3.545-0.762s2.763-1.582,4.248-2.812
		c1.484-1.23,2.842-2.567,4.072-4.014c1.23-1.444,2.246-2.9,3.047-4.365c0.8-1.465,1.191-2.744,1.172-3.838
		c-0.021-1.093-0.548-1.923-1.582-2.49c-1.035-0.566-2.764-0.674-5.186-0.322c-0.548,0.508-1.251,1.124-2.109,1.846
		c-0.859,0.723-1.749,1.514-2.666,2.373c-0.918,0.86-1.826,1.787-2.725,2.783c-0.899,0.996-1.68,2.021-2.344,3.076
		c-0.665,1.055-1.143,2.13-1.436,3.223C462.601,46.095,462.591,47.168,462.864,48.223z"/>
	<path fill="#FFFFFF" d="M487.415,50.859c-0.938-0.78-1.456-1.934-1.553-3.457c-0.098-1.523,0.117-3.241,0.645-5.156
		c0.527-1.913,1.309-3.915,2.344-6.006c1.034-2.089,2.235-4.082,3.604-5.977c1.367-1.894,2.851-3.593,4.453-5.098
		c1.602-1.503,3.202-2.617,4.805-3.34c1.602-0.722,3.164-0.976,4.688-0.762c1.523,0.215,2.909,1.104,4.16,2.666
		c0.781,0.977,1.25,1.963,1.406,2.959c0.155,0.996,0.137,2.012-0.059,3.047c-0.196,1.036-0.508,2.09-0.938,3.164
		c-0.431,1.075-0.85,2.159-1.26,3.252c-0.41,1.095-0.742,2.208-0.996,3.34c-0.255,1.134-0.303,2.285-0.146,3.457
		c0.195,1.485,0.858,2.364,1.992,2.637c1.133,0.274,2.49,0.196,4.072-0.234c1.582-0.429,3.252-1.113,5.01-2.051
		s3.389-1.875,4.893-2.812c1.503-0.938,3.252-2.109,5.244-3.516c1.093-0.234,1.708-0.165,1.846,0.205
		c0.137,0.372-0.079,0.919-0.645,1.641c-0.566,0.724-1.416,1.544-2.549,2.461c-1.134,0.919-2.423,1.808-3.867,2.666
		c-1.445,0.86-2.988,1.641-4.629,2.344s-3.243,1.183-4.805,1.436c-1.562,0.255-3.038,0.234-4.424-0.059
		c-1.387-0.293-2.529-0.985-3.428-2.08c-0.431-0.469-0.753-0.938-0.967-1.406c-0.215-0.469-0.557-0.879-1.025-1.23
		c-0.586,0.548-1.289,1.26-2.109,2.139s-1.709,1.758-2.666,2.637c-0.958,0.879-1.973,1.71-3.047,2.49
		c-1.075,0.782-2.178,1.368-3.311,1.758c-1.134,0.39-2.276,0.527-3.428,0.41C489.573,52.266,488.47,51.759,487.415,50.859z
		 M488.06,48.867c0.352,1.251,1.133,1.827,2.344,1.729c1.21-0.097,2.616-0.692,4.219-1.787c1.602-1.093,3.261-2.587,4.98-4.482
		c1.719-1.894,3.261-4.003,4.629-6.328c1.367-2.324,2.411-4.775,3.135-7.354c0.723-2.578,0.908-5.117,0.557-7.617
		c-0.938-0.742-2.109-0.771-3.516-0.088c-1.406,0.684-2.9,1.797-4.482,3.34c-1.582,1.543-3.145,3.379-4.688,5.508
		c-1.544,2.129-2.9,4.277-4.072,6.445s-2.061,4.21-2.666,6.123C487.893,46.271,487.746,47.774,488.06,48.867z"/>
	<path fill="#FFFFFF" d="M526.907,51.562c-0.469-0.312-0.479-0.732-0.029-1.26c0.448-0.527,1.172-1.093,2.168-1.699
		c0.996-0.604,2.158-1.239,3.486-1.904c1.327-0.663,2.607-1.289,3.838-1.875s2.314-1.103,3.252-1.553
		c0.938-0.448,1.543-0.791,1.816-1.025c1.289-1.093,1.963-2.001,2.021-2.725c0.059-0.722-0.264-1.308-0.967-1.758
		c-0.703-0.448-1.69-0.8-2.959-1.055c-1.27-0.253-2.578-0.488-3.926-0.703c-1.348-0.214-2.637-0.439-3.867-0.674
		s-2.159-0.546-2.783-0.938c-0.625-0.39-0.83-0.908-0.615-1.553c0.214-0.645,1.063-1.474,2.549-2.49
		c0.547-0.39,1.348-0.957,2.402-1.699c1.055-0.742,2.197-1.503,3.428-2.285c1.23-0.781,2.451-1.484,3.662-2.109
		c1.21-0.625,2.227-1.035,3.047-1.23c0.43-0.078,0.869-0.039,1.318,0.117c0.448,0.157,0.811,0.381,1.084,0.674
		c0.272,0.293,0.4,0.615,0.381,0.967c-0.021,0.352-0.284,0.665-0.791,0.938c-2.227,1.25-4.365,2.422-6.416,3.516
		c-2.051,1.094-4.111,2.344-6.182,3.75c-0.117,0.313-0.088,0.586,0.088,0.82s0.381,0.41,0.615,0.527
		c4.14,0.43,7.256,1.036,9.346,1.816c2.089,0.782,3.418,1.641,3.984,2.578c0.565,0.938,0.498,1.934-0.205,2.988
		s-1.749,2.091-3.135,3.105c-1.387,1.017-2.979,1.974-4.775,2.871c-1.797,0.899-3.525,1.661-5.186,2.285
		c-1.661,0.626-3.115,1.095-4.365,1.406C527.941,51.7,527.18,51.759,526.907,51.562z"/>
	<path fill="#FFFFFF" d="M553.743,51.562c-0.039-0.077-0.059-0.293-0.059-0.645s0.02-0.586,0.059-0.703
		c0.117-0.429,0.331-1.181,0.645-2.256c0.312-1.073,0.645-2.206,0.996-3.398c0.352-1.19,0.683-2.314,0.996-3.369
		c0.312-1.055,0.527-1.796,0.645-2.227c0.155-0.546,0.331-1.181,0.527-1.904c0.195-0.722,0.234-1.416,0.117-2.08
		c-0.586-0.078-1.31-0.009-2.168,0.205c-0.859,0.215-1.709,0.391-2.549,0.527c-0.841,0.137-1.621,0.137-2.344,0
		c-0.724-0.136-1.24-0.595-1.553-1.377c0.469-0.976,1.172-1.611,2.109-1.904s1.953-0.498,3.047-0.615
		c1.093-0.117,2.139-0.293,3.135-0.527s1.787-0.762,2.373-1.582c0.352-1.015,0.771-2.256,1.26-3.721
		c0.488-1.465,1.005-2.998,1.553-4.6c0.547-1.601,1.143-3.183,1.787-4.746c0.645-1.562,1.318-2.949,2.021-4.16
		c0.43-0.273,0.781-0.293,1.055-0.059c0.272,0.234,0.478,0.577,0.615,1.025c0.137,0.45,0.225,0.908,0.264,1.377
		c0.038,0.469,0.038,0.782,0,0.938c-0.234,1.016-0.636,2.1-1.201,3.252c-0.566,1.153-1.094,2.314-1.582,3.486
		c-0.489,1.172-0.879,2.344-1.172,3.516s-0.303,2.285-0.029,3.34h12.598c0.038,0,0.137,0.127,0.293,0.381
		c0.155,0.254,0.293,0.459,0.41,0.615c0.195,0.547-0.021,0.918-0.645,1.113c-0.625,0.196-1.465,0.322-2.52,0.381
		s-2.256,0.098-3.604,0.117c-1.348,0.02-2.637,0.117-3.867,0.293s-2.335,0.469-3.311,0.879c-0.977,0.41-1.641,1.025-1.992,1.846
		c-1.017,2.618-1.954,5.244-2.812,7.881c-0.859,2.637-1.68,5.303-2.461,7.998c-0.079,0.117-0.234,0.304-0.469,0.557
		c-0.234,0.255-0.489,0.469-0.762,0.645c-0.273,0.176-0.537,0.243-0.791,0.205C554.104,52.226,553.898,51.993,553.743,51.562z"/>
	<path fill="#FFFFFF" d="M578.587,51.562c-1.172-0.39-2.061-0.985-2.666-1.787c-0.606-0.8-1.006-1.688-1.201-2.666
		c-0.196-0.976-0.226-2.001-0.088-3.076c0.137-1.073,0.36-2.099,0.674-3.076c1.172-1.249,2.49-2.685,3.955-4.307
		c1.465-1.621,3.018-3.212,4.658-4.775c1.641-1.562,3.349-3.018,5.127-4.365c1.777-1.348,3.583-2.373,5.42-3.076
		c0.624-0.273,1.122-0.264,1.494,0.029c0.371,0.293,0.635,0.752,0.791,1.377c0.155,0.625,0.225,1.348,0.205,2.168
		c-0.021,0.82-0.088,1.622-0.205,2.402c-0.117,0.782-0.273,1.485-0.469,2.109c-0.196,0.625-0.391,1.055-0.586,1.289
		c-0.469,0.547-1.377,1.192-2.725,1.934c-1.348,0.743-2.842,1.553-4.482,2.432s-3.281,1.787-4.922,2.725s-2.988,1.866-4.043,2.783
		c-1.055,0.919-1.68,1.827-1.875,2.725c-0.196,0.899,0.352,1.72,1.641,2.461c1.327,0.157,2.938,0.088,4.834-0.205
		c1.895-0.293,3.828-0.683,5.801-1.172c1.972-0.487,3.876-0.996,5.713-1.523c1.836-0.527,3.34-0.946,4.512-1.26l0.703,0.645
		c-0.859,1.134-2.266,2.168-4.219,3.105c-1.954,0.938-4.063,1.71-6.328,2.314c-2.266,0.606-4.474,0.996-6.621,1.172
		C581.536,52.119,579.837,51.993,578.587,51.562z M592.591,29.18c-0.039-0.039-0.332,0.127-0.879,0.498
		c-0.548,0.372-1.222,0.86-2.021,1.465c-0.801,0.606-1.661,1.27-2.578,1.992c-0.918,0.723-1.758,1.397-2.52,2.021
		c-0.762,0.625-1.397,1.163-1.904,1.611c-0.508,0.45-0.724,0.674-0.645,0.674c0.624,0.117,1.436,0.029,2.432-0.264
		s2.03-0.712,3.105-1.26c1.074-0.546,2.1-1.162,3.076-1.846c0.976-0.683,1.748-1.357,2.314-2.021
		c0.565-0.664,0.858-1.25,0.879-1.758C593.87,29.786,593.449,29.414,592.591,29.18z"/>
	<path fill="#FFFFFF" d="M600.794,51.562c-0.079-0.038-0.068-0.498,0.029-1.377c0.097-0.879,0.243-1.981,0.439-3.311
		c0.195-1.327,0.448-2.792,0.762-4.395c0.312-1.601,0.645-3.135,0.996-4.6s0.732-2.754,1.143-3.867s0.811-1.884,1.201-2.314
		c0.272-0.273,0.547-0.283,0.82-0.029c0.272,0.254,0.547,0.567,0.82,0.938c0.272,0.372,0.547,0.703,0.82,0.996
		c0.272,0.293,0.565,0.322,0.879,0.088c1.093-1.523,2.294-2.978,3.604-4.365c1.309-1.386,2.763-2.587,4.365-3.604
		c0.155-0.117,0.586-0.302,1.289-0.557c0.703-0.253,1.503-0.507,2.402-0.762c0.898-0.253,1.825-0.469,2.783-0.645
		c0.957-0.176,1.777-0.253,2.461-0.234c0.683,0.02,1.151,0.196,1.406,0.527c0.254,0.333,0.126,0.889-0.381,1.67
		c-2.344,0.04-4.532,0.723-6.562,2.051c-2.031,1.329-3.906,2.969-5.625,4.922c-1.72,1.954-3.281,4.072-4.688,6.357
		s-2.628,4.405-3.662,6.357c-1.035,1.954-1.896,3.574-2.578,4.863c-0.684,1.289-1.182,1.934-1.494,1.934
		c-0.039,0-0.215-0.088-0.527-0.264C601.184,51.768,600.949,51.642,600.794,51.562z"/>
	<path fill="#FFFFFF" d="M617.61,74.707c-0.352-0.548-0.342-1.397,0.029-2.549c0.372-1.153,0.899-2.344,1.582-3.574
		c0.684-1.23,1.387-2.384,2.109-3.457c0.724-1.075,1.26-1.846,1.611-2.314c0.313-0.431,0.791-1.075,1.436-1.934
		c0.645-0.86,1.377-1.837,2.197-2.93c0.82-1.095,1.689-2.247,2.607-3.457c0.917-1.212,1.787-2.353,2.607-3.428
		c0.82-1.073,1.562-2.04,2.227-2.9c0.664-0.858,1.151-1.503,1.465-1.934c0.312-0.352,0.312-0.897,0-1.641
		c-0.313-0.741-0.791-1.611-1.436-2.607s-1.368-2.089-2.168-3.281c-0.801-1.19-1.523-2.402-2.168-3.633s-1.134-2.451-1.465-3.662
		c-0.332-1.21-0.343-2.344-0.029-3.398c0.43-0.312,0.898-0.126,1.406,0.557c0.507,0.684,1.045,1.622,1.611,2.812
		c0.565,1.192,1.162,2.5,1.787,3.926c0.624,1.427,1.23,2.716,1.816,3.867c0.586,1.153,1.162,2.062,1.729,2.725
		c0.565,0.665,1.104,0.802,1.611,0.41c1.016-0.741,2.012-1.688,2.988-2.842c0.976-1.151,1.913-2.353,2.812-3.604
		c0.898-1.25,1.748-2.47,2.549-3.662c0.8-1.191,1.553-2.236,2.256-3.135c0.272-0.352,0.536-0.595,0.791-0.732
		c0.254-0.136,0.653-0.107,1.201,0.088c0.43,0.157,0.352,0.84-0.234,2.051c-0.586,1.211-1.504,2.774-2.754,4.688
		c-1.251,1.915-2.745,4.093-4.482,6.533c-1.738,2.442-3.574,4.98-5.508,7.617s-3.867,5.263-5.801,7.881
		c-1.934,2.616-3.712,5.048-5.332,7.295c-1.62,2.245-3.008,4.219-4.16,5.918c-1.151,1.699-1.904,2.938-2.256,3.721
		c-0.155,0.352-0.322,0.703-0.498,1.055s-0.419,0.645-0.732,0.879c-0.078-0.04-0.185-0.117-0.322-0.234
		c-0.137-0.117-0.272-0.245-0.41-0.381c-0.137-0.138-0.272-0.274-0.41-0.41C617.737,74.892,617.649,74.784,617.61,74.707z"/>
</g>
</svg>
